<svg version="1.1" id="Layer_1" xmlns:x="ns_extend;" xmlns:i="ns_ai;" xmlns:graph="ns_graphs;" xmlns="http://www.w3.org/2000/svg" xmlns:xlink="http://www.w3.org/1999/xlink" x="0px" y="0px" viewBox="0 0 129.6 100" style="enable-background:new 0 0 129.6 100;" xml:space="preserve">
 <style type="text/css">
  .st0{fill-rule:evenodd;clip-rule:evenodd;fill:#FFFFFF;}
 </style>
 <metadata>
  <sfw xmlns="ns_sfw;">
   <slices>
   </slices>
   <sliceSourceBounds bottomLeftOrigin="true" height="100" width="129.6" x="-52.6" y="-0.1">
   </sliceSourceBounds>
  </sfw>
 </metadata>
 <g>
  <g>
   <g>
    <g>
     <path class="st0" d="M64.6,0c35.7,0,64.6,22.1,64.6,49.2s-29,50.8-64.6,50.8C29,99.8,0,76.1,0,49.2C0,22.1,29,0,64.6,0z
					 M19.4,22.2L19,22.7C12.5,30.1,8.8,39.4,8.8,49.2c0,25.3,25.1,47.3,56.1,47.3s56.1-22.2,56.1-47.3c0-9.8-3.7-18.7-10.1-26.3
					c-2,1.3-4.4,3-5.4,4.2l-0.2,0.3l0.7,1.2c0.7,1.2,1.2,2.4,1.9,4.2c1.3,3.7,2,8.2,2,12.8c0,1,0,2-0.2,3l-0.2,0.5l0,0l-1.2,3
					c-0.5,1.3-1.2,3-1.9,4.9l-0.5,1.5c-1,2.5-1.9,5.1-2.2,6.6l-0.3,0.7c-3.2,3.9-7.4,9.4-9.4,14.1c-0.3,0.8-1,1.3-1.7,1.5
					c-1,0.2-2.4-0.3-3.7-1.7c-0.5-0.5-1-1.3-1.5-2.2c-0.2,0.2-0.3,0.5-0.5,0.5c-1.3,2-3.7,4.7-8.1,6.9c-2,1-7.1,2.7-12.6,3.2
					c-3.7,0.3-6.1,0.2-7.6-0.2c-1.7-0.3-3.4-1-4-3.2c-4,1.9-8.4-0.8-7.2-4.4c-2,0.8-7.9-1.3-4.5-6.9c-0.2-0.2-1-1.2-1.2-1.5
					c-0.8,2.2-2.2,3.9-4.2,5.2c-0.8,0.5-2.2,0.5-2.9,0c-0.5-0.3-1-1-1.3-2.2c0-0.2-0.2-0.2-0.2-0.3C28.8,67,25.8,63,23.7,60.9
					c-0.3-0.2-0.5-0.7-0.5-1.5c-0.3-2.5-1-6.1-1.7-9.3l-0.2-1l-0.2-0.5l-1.3-6.6v-0.2v-0.5c0.2-2.9,1.5-6.7,3-10.4
					c0,0,1.7-4.4,1.7-4.7c-0.2-0.2-1-0.8-1.9-1.5l-0.7-0.5c-1-0.8-2-1.7-2-1.7s-0.2-0.2-0.3-0.2L19.4,22.2L19.4,22.2z M125.3,80.8
					c2.5,0,4.4,1.9,4.4,4.5s-1.9,4.5-4.4,4.5s-4.4-1.9-4.4-4.5C120.9,82.7,122.7,80.8,125.3,80.8z M125.3,81.5c-2,0-3.7,1.3-3.7,4
					c0,2.5,1.7,3.9,3.7,3.9s3.7-1.3,3.7-3.9C129,82.8,127.3,81.5,125.3,81.5L125.3,81.5z M125.3,82.7c1,0,1.7,0.5,1.7,1.5
					c0,0.7-0.3,1.2-1,1.3l1.3,2l-0.8,0.2l-1.5-2.2h-0.3v2h-0.8v-4.9H125.3z M42.1,7.2L42.1,7.2c-7.7,2.9-14.6,7.1-20.2,12.3l2.7,1.7
					c1,0.3,2.4,0,3.5-0.5l0.3-0.2l0.3-0.2c1.7-0.8,3.4-1,3.5-1l0,0l0.8,0.3l-0.3,0.5c-1.5,1.2-2.9,2.5-3.9,3.9c0,0,0,0.2-0.2,0.2
					l0,0l-0.8,2l-1,2.5c-1.7,4-3,7.6-3.4,12.1v0.2v0.3v0.2l0,0l0.5,2.4c0.8,4.2,1.9,8.6,2.5,14.6l0.3,0.3c3.9,4.5,5.4,7.9,7.4,12
					c0,0,0.7,1.3,0.7,1.5c0,0.3,0.3,1.2,0.7,1.2c0.2,0,0.3,0,0.8-0.5c2.5-2.7,2.7-7.4,0.3-10.4c0,0-0.8-0.7-1-0.8l0,0h-0.2l-0.2-0.2
					v-0.2c0.5-2.5,0.5-6.9-1.5-8.6l-0.3-0.2l-0.2-0.5l0.8-0.5c2.7-1.9,6.9-4.9,6.7-9.1v-0.5v-0.7l1.2,0.5c0,0,0.7,2,0.7,3.2
					c0,2.7-1.5,5.2-4.4,7.4c0.7,1,1,2.9,1,4.5c0,1.3-0.2,2.5-0.5,3.4c0.3,0.2,1.2,1,1.9,2.2s1,2.4,1.2,3.7v0.5l1.2,1.5
					c4,5.2,5.6,7.2,10.4,9.4c4.2,1.9,12,3.2,16.3,2.4l0.5-0.2l0.5-0.2l-0.2,0.3c0,0-0.7,0.8-0.7,1c-2,1-6.7,1.7-11.6,1l-0.5,0.5
					c-0.2,0.2-0.3,0.5-0.3,0.7s-0.2,1.9,1.7,2c5.2,0.5,13.3-1,17.3-3.2c3.5-1.9,5.2-3.9,7.2-6.7l0.3-0.5l0.2-0.3l1.2-1.5v-2
					c0.2-1.9,0.8-4.5,3.2-6.6c-0.2-0.5-0.2-1-0.2-1.7c0-2.2,0.3-5.2,1.3-6.4l-0.2-0.2c-2.2-2.5-3.7-5.4-4.4-8.4
					c-0.2-0.8-0.8-3.4-0.8-6.1c0-1,0-2.2,0.3-3.2c0,0,0.2-0.3,0.3-0.5l0,0l0.8-0.3v0.7c0.2,5.2,2.5,12.3,7.2,16.3l0.5,0.5l0.5,0.3
					l-0.5,0.3c-1.9,1.2-2.5,5.7-2,8.6c0,0.2,0.2,0.7-0.2,0.8c-1.9,1.3-2.9,3.7-3,6.2c0,2,0.5,4,1.5,5.1c0.3,0.2,0.7,0.7,1,0.7
					c0,0,0.2,0,0.3-0.5c1.2-2.9,3.9-7.7,7.7-12l0.7-0.7l0.2-0.3c0.5-2.2,2.4-7.7,3.9-12.1l1.5-4.2v-0.3c0-3-0.5-6.4-1.5-10.6l-0.2-1
					l-1.3-4.5l0-0.7l-0.2-0.3l-0.7-1.5l-0.2-0.2l-0.2-0.3l-0.2-0.3l-0.2-0.3l-0.5-0.8l-0.3-0.7c-0.5-1.2-1-2-1.9-3L98,22.2l-0.3-0.8
					l0.3-0.2c0,0,0.5-0.2,0.7-0.2h0.5l0.3,0.2l0.7,0.3l0.5,0.3c0.3,0.2,0.5,0.3,0.7,0.3c1.2,0.5,3.2,0,5.1-1.3l1.5-1
					c-5.4-5.4-12.3-9.6-20-12.6L84,11.1l0,0L83.2,12l-1.5,1.5c-0.3,0.3-0.3,0.7-0.3,0.8v0.2c0.2,0.2,1.2,0.5,2,0.7h0.3h0.2v0.2
					c-0.2,0.5-0.3,0.8-1,1c-1.9,0.3-5.6,1.2-7.9,2.7c0,0-3.4,2.2-4.9,5.6c-1.3,2.7-2.2,5.4-2.5,7.7L67,33.7l0,0l1,6.2
					c0,0,0.2,1.3,0.2,1.5c0.3,1.9,0.5,3.2,0.7,4.2L69,46l1.3,3c0,0,0.8,2,0.8,2.4l0,0l1,1c0,0,1.3,1.3,1.9,1.9l0.2,0.2l0,0
					c0,0,0.2,0.2,0.3,0.3l0.8,1.2l0,0l0,0c0.3,0,2.2,0.3,2.2,0.3c7.2,1.7,4.2,6.2,4.2,6.2s0.2-2.9-4.9-3.7c0,0-2.5-0.3-2.9-0.3l0,0
					l-1-1l-0.7-0.7l-2-2c0,0-1.3-1.2-1.5-1.2c0,0-0.5-0.7-1-1.5l-0.2-0.3l-0.5-1l0-0.2l-1-2.4l-2.9-14.8c-0.7-5.2-3.4-10.9-7.1-14.3
					c-2-1.9-5.1-4-8.2-4.2h-0.5h-0.7l0.2-1c0,0,0.3,0,0.5-0.2c0.2-0.2,0.5-0.2,0.5-0.5c0-0.2-0.2-0.7-1.3-1.9c0,0-0.8-0.7-1.2-1.2
					l-0.3,0l0,0l-2.7-2.4L42.1,7.2L42.1,7.2L42.1,7.2z M125.3,83.5h-0.7V85h0.7c0.5,0,0.8-0.2,0.8-0.7
					C126.1,83.8,125.8,83.5,125.3,83.5z M49.2,79.5C48,82,50.5,84,55.2,81.6C53,81.1,50.7,80.5,49.2,79.5z M50.7,57.7
					c0.2,1.5-0.8,2.9-0.8,2.9s0.8,1.2,1,1.5l0,0l0.8,1.2l1.7,2.5l0,0l0.7,0.8l1.7,2.4l1.9,0.7c0,0,2.5,1.3,3,1.5l0,0l1,0.5
					c0,0,1.9,1.2,2.2,1.3l0,0H64c0,0,2.4-0.2,3.9-0.2c4.9,0.3,6.4,1.9,6.6,3.2c0.3,1.5-1.3,2.7-1.3,2.7s0.5-1.5-1.2-2.4
					c-1.3-0.7-3.4-0.7-5.2-0.7H66l-3.4,0.2c0,0-0.2,0-0.3,0h-0.2l-2.7-1.5l-1.5-0.8l-0.3-0.2l-2.2-1.2c0,0-1.9-1-2.2-1.2l0,0
					L52,69.9l-2.4-3.2l-4.7-6.1l0.7-0.2c1.3-0.3,3.5-1.3,4.2-1.9C50.5,57.9,50.5,57.9,50.7,57.7z M43.8,74.9c-0.7,1.9,0.3,4,3.5,3.2
					C46.6,77.6,44.3,75.6,43.8,74.9L43.8,74.9z M57.2,53.2c0,0,0.5,1.7-0.2,2.9c0.2,0.3,1.7,2.4,1.9,2.7l0,0l0.3,0.3
					c1,1.3,2.2,2.9,3,4.2c0,0,0.5,0.8,0.5,1l0,0l0,0l0.3,0.2l2.2,0.7l0,0l3.2,1.7l0.5,0.3l2,1.2c7.1-0.2,8.9,2,9.1,4.2
					c0.2,2.4-2.2,3.7-2.4,3.9c0,0,1.3-1.7,0.2-3.2c-0.8-1.2-2.4-1.9-4.4-2c-1.5-0.2-3.7,0-4.2,0l0,0l-2-1.3c-0.8-0.5-2.9-1.3-4.2-2
					c0,0-1.7-0.7-2.2-0.8l0,0l-0.3-0.5l-0.8-0.8l-6.4-8.8l0.5-0.3c0.8-0.5,2.2-1.5,2.7-2.2C57.1,53.9,57.2,53.2,57.2,53.2L57.2,53.2
					z M63,48.1L63,48.1c0.2,0.3,0.7,1.3,0.5,2.5V51l5.1,7.9l1.9,0.8l0.7,0.3l2.4,1.5l0,0l0.3,0.2l0.3,0.2l0.3,0.3
					c0.3,0.3,0.7,0.5,0.7,0.5l3.4,0.5c2.7,0.3,3.5,1.2,4.2,2.2c1.9,2.7-1,5.4-1,5.4s1-2.2-1-3.7c-0.5-0.3-1.5-1-3.2-1.2h-0.5
					l-3.2-0.2h-0.2l-2-1.9l-2.4-1.3l-0.8-0.3c0,0-1.7-1-2-1.2l0,0l-1-1.3L65,59.3l0,0l-5.2-7.4l0.3-0.2c1.2-0.7,2-1.5,2.4-2.2
					l0.2-0.3L63,48.1L63,48.1z M64.6,3.4c-6.7,0-13.3,1-19.2,2.7c2.9,2.4,7.4,6.6,8.9,7.9c2.9,1.2,5.1,2.9,6.9,5.1
					c1.7,2,2.9,4.4,3.9,7.2c0.3-0.8,0.8-2.4,0.8-2.4c1.3-3,4.7-6.2,7.9-7.6c1.3-0.5,4.2-3.7,6.9-6.4l1.7-1.7L83,7.7l1.3-1.3
					C78.3,4.4,71.7,3.4,64.6,3.4L64.6,3.4z">
     </path>
    </g>
   </g>
  </g>
 </g>
</svg>